<?xml version="1.0" standalone="no"?>
<!DOCTYPE svg PUBLIC "-//W3C//DTD SVG 20010904//EN"
 "http://www.w3.org/TR/2001/REC-SVG-20010904/DTD/svg10.dtd">
<svg version="1.0" xmlns="http://www.w3.org/2000/svg"
 width="387.000000pt" height="193.000000pt" viewBox="0 0 387.000000 193.000000"
 preserveAspectRatio="xMidYMid meet">

<g transform="translate(0.000000,193.000000) scale(0.100000,-0.100000)"
fill="#000000" stroke="none">
<path d="M1340 974 c0 -416 3 -525 13 -522 9 4 13 120 15 526 2 460 0 522 -13
522 -13 0 -15 -64 -15 -526z"/>
<path d="M1735 1285 c-59 -21 -85 -56 -85 -115 0 -41 4 -52 30 -73 30 -25 45
-32 152 -62 72 -19 97 -50 79 -94 -7 -16 -24 -33 -37 -40 -35 -15 -111 -13
-159 5 -56 21 -69 22 -73 1 -6 -29 79 -61 163 -61 111 0 170 42 170 120 0 62
-31 90 -136 120 -46 14 -95 33 -109 43 -35 25 -37 64 -6 96 21 21 34 25 86 25
35 0 74 -6 91 -15 33 -18 49 -13 49 15 0 14 -13 23 -52 35 -63 18 -110 19
-163 0z"/>
<path d="M3515 1291 c-105 -26 -175 -117 -175 -227 0 -22 11 -62 24 -91 55
-117 205 -164 328 -102 45 23 54 37 37 55 -12 12 -22 10 -63 -11 -27 -14 -64
-25 -81 -25 -172 0 -250 204 -122 317 58 51 155 57 215 14 29 -20 30 -20 46
-2 16 18 16 20 -11 39 -52 37 -129 49 -198 33z"/>
<path d="M2080 1070 l0 -220 25 0 25 0 0 220 0 220 -25 0 -25 0 0 -220z"/>
<path d="M2280 1070 l0 -220 30 0 30 0 0 163 0 162 73 -121 c75 -127 94 -154
107 -154 4 0 43 59 85 130 43 72 81 133 86 136 5 3 9 -66 9 -155 l0 -161 30 0
30 0 0 220 0 220 -28 0 c-25 0 -35 -14 -117 -155 -48 -85 -92 -155 -96 -155
-4 0 -48 70 -99 155 -78 132 -95 155 -116 155 l-24 0 0 -220z"/>
<path d="M2943 1088 c-119 -263 -111 -238 -76 -238 26 0 32 6 52 55 l23 55
123 0 123 0 23 -55 c21 -51 25 -55 55 -55 l33 0 -43 98 c-24 53 -69 151 -99
217 -54 115 -58 120 -89 123 l-33 3 -92 -203z m176 33 c23 -52 41 -100 41
-108 0 -10 -23 -13 -95 -13 -62 0 -95 4 -95 11 0 6 16 47 36 92 20 45 40 93
45 106 13 32 20 23 68 -88z"/>
<path d="M557 1193 c-24 -4 -26 -8 -21 -31 4 -15 8 -29 10 -30 6 -8 64 42 64
55 0 13 -3 13 -53 6z"/>
<path d="M712 1140 c-6 -10 -8 -21 -3 -24 5 -3 11 4 14 16 8 29 4 32 -11 8z"/>
<path d="M740 1121 c0 -16 -9 -25 -30 -32 -16 -6 -30 -15 -30 -19 0 -11 64
-19 68 -9 2 5 10 9 19 9 11 0 13 -7 8 -30 -4 -19 -2 -36 5 -45 14 -17 50 -20
50 -5 0 6 -5 9 -11 8 -6 -2 -14 3 -16 10 -3 8 2 10 14 6 17 -5 17 -5 1 9 -10
8 -18 25 -18 39 0 14 -13 36 -30 53 -29 28 -30 28 -30 6z"/>
<path d="M470 1101 c0 -25 -3 -26 -35 -5 -23 15 -25 15 -45 -18 -25 -41 -25
-53 0 -80 l20 -22 0 22 c0 15 6 22 19 22 18 0 71 52 71 70 0 4 -7 13 -15 20
-13 10 -15 9 -15 -9z m-20 -37 c0 -8 -4 -12 -10 -9 -5 3 -10 10 -10 16 0 5 5
9 10 9 6 0 10 -7 10 -16z"/>
<path d="M665 1022 c-5 -4 -16 -15 -24 -24 -18 -24 1 -48 40 -48 16 0 30 -6
31 -12 0 -7 2 -25 3 -39 1 -15 5 -35 9 -45 7 -18 9 -18 27 5 10 13 19 31 19
40 0 9 7 27 16 39 9 13 11 22 4 22 -6 0 -16 11 -22 25 -7 16 -19 25 -34 25
-13 0 -26 5 -29 10 -7 12 -26 13 -40 2z"/>
<path d="M466 934 c-4 -10 1 -25 10 -35 13 -14 15 -29 10 -66 -5 -38 -4 -44 5
-30 6 10 23 31 38 45 43 42 45 58 7 81 -40 25 -62 27 -70 5z"/>
<path d="M221 679 c-28 -72 -51 -135 -51 -140 0 -5 38 -9 83 -9 97 0 106 6
138 89 24 65 24 92 -2 125 -19 25 -87 66 -107 66 -6 0 -33 -59 -61 -131z"/>
<path d="M843 785 c-23 -14 -51 -40 -62 -59 l-21 -34 24 -68 c14 -38 33 -74
43 -81 10 -8 49 -13 99 -13 l83 0 -14 38 c-44 120 -93 236 -101 239 -5 1 -28
-8 -51 -22z"/>
<path d="M1680 675 c-19 -23 -7 -47 30 -60 23 -8 36 -19 38 -32 4 -26 -28 -39
-58 -23 -13 7 -20 7 -20 1 0 -17 49 -25 76 -12 38 17 26 71 -16 71 -28 0 -52
24 -44 44 5 13 15 17 40 14 18 -2 30 0 28 4 -9 14 -61 9 -74 -7z"/>
<path d="M1846 669 c-34 -27 -35 -71 -1 -104 24 -25 78 -34 89 -16 3 5 -9 9
-28 8 -44 -1 -66 18 -66 58 0 40 30 69 65 63 14 -3 25 -1 25 3 0 17 -58 9 -84
-12z"/>
<path d="M2003 615 c0 -51 2 -68 6 -45 6 33 8 35 46 35 38 0 40 -2 46 -35 4
-23 6 -6 6 45 0 51 -2 68 -6 45 -6 -33 -8 -35 -46 -35 -38 0 -40 2 -46 35 -4
23 -6 6 -6 -45z"/>
<path d="M2199 671 c-50 -40 -17 -131 48 -131 32 0 73 42 73 75 0 33 -41 75
-73 75 -14 0 -35 -8 -48 -19z m85 -13 c32 -46 11 -100 -39 -100 -31 0 -55 24
-55 57 0 31 28 65 55 65 13 0 31 -10 39 -22z"/>
<path d="M2390 670 c-28 -28 -26 -81 3 -108 48 -46 117 -14 117 53 0 44 -29
75 -70 75 -17 0 -39 -9 -50 -20z m85 -4 c27 -19 24 -74 -4 -98 -29 -23 -36
-23 -61 2 -54 54 5 140 65 96z"/>
<path d="M2570 616 l0 -76 46 0 c27 0 43 4 39 10 -3 6 -19 10 -36 10 -29 0
-29 0 -29 59 0 33 -4 63 -10 66 -6 4 -10 -22 -10 -69z"/>
<path d="M2820 670 c-28 -28 -26 -81 3 -108 48 -46 117 -14 117 53 0 44 -29
75 -70 75 -17 0 -39 -9 -50 -20z m85 -4 c27 -19 24 -74 -4 -98 -29 -23 -36
-23 -61 2 -54 54 5 140 65 96z"/>
<path d="M3000 614 c0 -47 4 -73 10 -69 6 3 10 19 10 35 0 25 4 29 33 33 l32
4 -32 1 c-29 2 -33 5 -33 31 0 27 4 30 38 34 34 3 33 4 -10 5 l-48 2 0 -76z"/>
<path d="M3237 679 c-5 -9 -7 -43 -5 -75 l3 -59 50 -3 c54 -3 54 14 0 20 -29
3 -30 5 -35 68 -4 41 -9 59 -13 49z"/>
<path d="M3393 615 c0 -44 2 -61 4 -37 2 23 2 59 0 80 -2 20 -4 1 -4 -43z"/>
<path d="M3470 614 c0 -47 4 -73 10 -69 6 3 10 19 10 35 0 25 4 29 33 33 l32
4 -32 1 c-29 2 -33 5 -33 31 0 26 4 30 33 34 28 3 26 4 -10 5 l-43 2 0 -76z"/>
<path d="M3620 615 l0 -75 46 0 c27 0 43 4 39 10 -3 6 -19 10 -36 10 -24 0
-29 4 -29 24 0 20 6 25 33 29 l32 4 -32 1 c-29 2 -33 5 -33 31 0 27 4 30 38
34 34 3 33 4 -10 5 l-48 2 0 -75z"/>
</g>
</svg>
